<?xml version="1.0" standalone="no"?>
<!DOCTYPE svg PUBLIC "-//W3C//DTD SVG 20010904//EN"
 "http://www.w3.org/TR/2001/REC-SVG-20010904/DTD/svg10.dtd">
<svg version="1.0" xmlns="http://www.w3.org/2000/svg"
 width="53.000000pt" height="53.000000pt" viewBox="0 0 53.000000 53.000000"
 preserveAspectRatio="xMidYMid meet">

<g transform="translate(0.000000,53.000000) scale(0.100000,-0.100000)"
fill="#000000" stroke="none">
<path d="M200 521 c-78 -24 -142 -84 -171 -161 -36 -95 -14 -199 55 -263 53
-50 79 -63 148 -76 63 -11 107 1 184 51 43 27 111 129 100 147 -4 5 -2 21 3
34 6 15 6 37 1 54 -4 15 -14 46 -20 68 -19 62 -74 112 -148 135 -67 21 -109
24 -152 11z m163 -67 c40 -20 77 -54 77 -70 0 -6 6 -17 14 -23 22 -19 29 -90
11 -117 -8 -13 -15 -32 -15 -43 0 -32 -78 -100 -134 -116 -75 -22 -139 -11
-188 33 -43 39 -68 80 -68 112 0 18 6 15 38 -20 33 -34 45 -40 78 -40 46 1 79
22 70 45 -4 11 -17 15 -44 14 -44 -3 -62 5 -62 29 0 31 29 61 62 64 41 4 46
23 11 42 -26 13 -33 12 -75 -6 -35 -15 -49 -28 -61 -56 l-15 -37 -1 35 c-1 34
17 70 56 116 51 61 166 78 246 38z"/>
<path d="M308 359 c-26 -15 -41 -48 -44 -96 -3 -36 1 -46 27 -68 39 -32 100
-34 129 -5 27 27 18 40 -26 40 -45 0 -74 16 -74 40 0 28 29 52 57 47 30 -6 58
15 50 37 -7 19 -90 22 -119 5z"/>
</g>
</svg>
